<svg id="Capa_1" enable-background="new 0 0 512 512" height="512" viewBox="0 0 512 512" width="512" xmlns="http://www.w3.org/2000/svg"><g><path d="m474.5 34.49h-23.25v-4.49c0-4.143-3.358-7.5-7.5-7.5h-37.5v-15c0-4.143-3.358-7.5-7.5-7.5s-7.5 3.357-7.5 7.5v15h-37.5c-4.142 0-7.5 3.357-7.5 7.5v4.49h-37.75v-4.49c0-4.143-3.358-7.5-7.5-7.5h-37.5v-15c0-4.143-3.358-7.5-7.5-7.5s-7.5 3.357-7.5 7.5v15h-37.5c-4.142 0-7.5 3.357-7.5 7.5v4.49h-37.75v-4.49c0-4.143-3.358-7.5-7.5-7.5h-37.5v-15c0-4.143-3.358-7.5-7.5-7.5s-7.5 3.357-7.5 7.5v15h-37.5c-4.142 0-7.5 3.357-7.5 7.5v4.49h-23.25c-20.678 0-37.5 16.823-37.5 37.5v242.02c0 20.678 16.822 37.5 37.5 37.5h76v22.504c0 4.143 3.358 7.5 7.5 7.5h82.5v30.927c0 4.143 3.358 7.5 7.5 7.5s7.5-3.357 7.5-7.5v-38.427-22.504h75v22.504 122.986h-75v-51.88c0-4.143-3.358-7.5-7.5-7.5s-7.5 3.357-7.5 7.5v51.88h-37.5c-4.142 0-7.5 3.357-7.5 7.5s3.358 7.5 7.5 7.5h45 90 45c4.142 0 7.5-3.357 7.5-7.5s-3.358-7.5-7.5-7.5h-37.5v-115.486h82.5c4.142 0 7.5-3.357 7.5-7.5v-22.504h24.68c4.142 0 7.5-3.357 7.5-7.5s-3.358-7.5-7.5-7.5h-385.68c-12.407 0-22.5-10.094-22.5-22.5v-242.02c0-12.406 10.093-22.5 22.5-22.5h23.25v15h-23.25c-4.142 0-7.5 3.357-7.5 7.5v48.64c0 4.143 3.358 7.5 7.5 7.5s7.5-3.357 7.5-7.5v-41.14h422v227.02h-422v-153.2c0-4.143-3.358-7.5-7.5-7.5s-7.5 3.357-7.5 7.5v160.7c0 4.143 3.358 7.5 7.5 7.5h437c4.142 0 7.5-3.357 7.5-7.5v-242.02c0-4.143-3.358-7.5-7.5-7.5h-23.25v-15h23.25c12.407 0 22.5 10.094 22.5 22.5v242.02c0 12.406-10.093 22.5-22.5 22.5h-18.63c-4.142 0-7.5 3.357-7.5 7.5s3.358 7.5 7.5 7.5h18.63c20.678 0 37.5-16.822 37.5-37.5v-242.02c0-20.677-16.822-37.5-37.5-37.5zm-91 332.024h-75v-15h75zm-255 0v-15h75v15zm217.75-317.024v15h-37.75v-15zm-127.75-11.99h75v26.99h-75zm-15 11.99v15h-37.75v-15zm-127.75-11.99h75v26.99h-75zm285.5 26.99v-26.99h75v26.99z"/><path d="m190.53 293c12.745 0 23.114-10.369 23.114-23.114v-46.283h5.911l60.526 30.263c3.016 8.874 11.424 15.279 21.304 15.279 12.407 0 22.5-10.094 22.5-22.5v-126.145c0-12.406-10.093-22.5-22.5-22.5-9.881 0-18.288 6.405-21.304 15.279l-60.526 30.263h-43.772c-22.073 0-40.03 17.957-40.03 40.03 0 19.203 13.594 35.285 31.663 39.144v47.17c0 12.745 10.369 23.114 23.114 23.114zm8.115-23.114c0 4.475-3.64 8.114-8.114 8.114-4.475 0-8.115-3.64-8.115-8.114v-46.283h16.229zm102.741-156.886c4.136 0 7.5 3.364 7.5 7.5v126.145c0 4.136-3.364 7.5-7.5 7.5s-7.5-3.364-7.5-7.5v-126.145c0-4.136 3.364-7.5 7.5-7.5zm-22.5 123.498-50.061-25.031v-55.789l50.061-25.031zm-128.133-52.926c0-13.802 11.229-25.03 25.03-25.03h38.042v50.061h-7.681-30.361c-13.802 0-25.03-11.229-25.03-25.031z"/><path d="m374.05 116.751c-2.929-2.928-7.678-2.928-10.606 0l-24.289 24.289c-2.929 2.93-2.929 7.678 0 10.607 1.464 1.464 3.384 2.196 5.303 2.196s3.839-.732 5.303-2.196l24.289-24.289c2.929-2.929 2.929-7.677 0-10.607z"/><path d="m339.155 226.665 24.289 24.289c1.464 1.464 3.384 2.196 5.303 2.196s3.839-.732 5.303-2.196c2.929-2.93 2.929-7.678 0-10.607l-24.289-24.289c-2.929-2.928-7.678-2.928-10.606 0-2.929 2.929-2.929 7.677 0 10.607z"/><path d="m344.458 176.072c-4.142 0-7.5 3.357-7.5 7.5s3.358 7.5 7.5 7.5h24.289c4.142 0 7.5-3.357 7.5-7.5s-3.358-7.5-7.5-7.5z"/></g></svg>