<svg id="Capa_1" enable-background="new 0 0 512 512" height="512" viewBox="0 0 512 512" width="512" xmlns="http://www.w3.org/2000/svg"><g><path d="m180.568 339.279c.018.185.05.365.081.545.011.061.016.122.028.182.043.215.098.425.159.632.007.025.012.052.02.077.065.212.141.419.223.623.009.022.015.044.024.066.081.195.173.384.269.57.016.031.029.064.045.094.093.173.196.339.301.504.027.042.049.086.077.127.103.154.216.3.33.446.037.048.07.098.109.145.142.173.294.338.451.498.015.015.027.031.042.046l76.55 76.55c.018.018.038.033.057.051.156.153.317.301.486.44.054.044.112.082.167.125.139.108.277.215.423.313.049.033.101.06.151.092.157.1.315.199.48.287.037.02.075.035.112.054.181.093.363.182.552.261.026.011.054.019.081.03.2.08.402.155.609.218.026.008.054.013.08.021.207.061.416.116.63.158.059.012.119.017.178.027.182.032.363.063.549.082.248.025.498.038.749.038h206.77c9.649 0 17.5-7.851 17.5-17.5v-136.591c0-4.143-3.358-7.5-7.5-7.5s-7.5 3.357-7.5 7.5v136.59c0 1.379-1.122 2.5-2.5 2.5h-199.271v-59.05c0-9.649-7.851-17.5-17.5-17.5h-59.05v-153.225h20.348c9.649 0 17.5-7.851 17.5-17.5v-101.261c0-4.367-1.619-8.356-4.274-11.425-.191-.236-.395-.465-.619-.681-3.187-3.317-7.655-5.395-12.608-5.395h-20.347v-24.043c0-1.379 1.122-2.5 2.5-2.5h273.32c1.378 0 2.5 1.121 2.5 2.5v220.99c0 4.143 3.358 7.5 7.5 7.5s7.5-3.357 7.5-7.5v-220.99c0-9.649-7.85-17.5-17.5-17.5h-273.32c-9.649 0-17.5 7.851-17.5 17.5v24.044h-139.883c-4.952 0-9.421 2.077-12.608 5.395-.223.216-.427.444-.619.681-2.655 3.069-4.274 7.058-4.274 11.425v101.261c0 9.649 7.851 17.5 17.5 17.5h139.884v160.724c0 .251.013.501.038.749zm29.797-282.735-20.386 25.728c-1.431 1.807-3.573 2.842-5.878 2.842h-111.677c-2.305 0-4.447-1.035-5.878-2.842l-20.386-25.728zm-172.218 103.761v-89.72l16.642 21.002c4.293 5.418 10.721 8.525 17.635 8.525h111.677c6.914 0 13.342-3.107 17.635-8.525l16.642-21.002v89.719c0 1.379-1.122 2.5-2.5 2.5h-27.751c-.033 0-.064-.005-.097-.005s-.064.004-.097.005h-147.286c-1.378.001-2.5-1.12-2.5-2.499zm218.933 188.225v48.443l-50.944-50.943h48.444c1.378 0 2.5 1.121 2.5 2.5z"/><path d="m147.482 318.161h-39.143l45.781-80.776c3.992-7.045 3.942-15.427-.135-22.423-4.076-6.995-11.344-11.172-19.44-11.172h-78.155c-8.096 0-15.364 4.177-19.44 11.172-4.077 6.996-4.127 15.378-.135 22.423l45.781 80.776h-39.143c-11.197 0-20.306 9.109-20.306 20.306v36.019c0 4.143 3.358 7.5 7.5 7.5s7.5-3.357 7.5-7.5v-36.019c0-2.926 2.38-5.306 5.306-5.306h104.03c2.926 0 5.306 2.38 5.306 5.306v153.228c0 2.926-2.38 5.306-5.306 5.306h-104.03c-2.926 0-5.306-2.38-5.306-5.306v-87.209c0-4.143-3.358-7.5-7.5-7.5s-7.5 3.357-7.5 7.5v87.209c0 11.196 9.109 20.306 20.306 20.306h104.03c11.197 0 20.306-9.109 20.306-20.306v-153.228c-.001-11.196-9.11-20.306-20.307-20.306zm-97.572-95.647c.653-1.119 2.59-3.724 6.48-3.724h78.156c3.89 0 5.828 2.604 6.48 3.724s1.963 4.09.045 7.475l-45.603 80.461-45.603-80.462c-1.918-3.384-.608-6.354.045-7.474z"/><path d="m95.468 355.724c-18.616 0-33.761 15.145-33.761 33.761s15.145 33.761 33.761 33.761 33.761-15.145 33.761-33.761-15.146-33.761-33.761-33.761zm0 52.521c-10.345 0-18.761-8.416-18.761-18.761s8.416-18.761 18.761-18.761 18.761 8.416 18.761 18.761-8.416 18.761-18.761 18.761z"/><path d="m112.421 442.484h-33.906c-4.142 0-7.5 3.357-7.5 7.5s3.358 7.5 7.5 7.5h33.906c4.142 0 7.5-3.357 7.5-7.5s-3.358-7.5-7.5-7.5z"/><path d="m474.453 453.709v-2.585c0-9.74-7.924-17.664-17.664-17.664h-90.458c-4.142 0-7.5 3.357-7.5 7.5s3.358 7.5 7.5 7.5h90.458c1.469 0 2.664 1.195 2.664 2.664v2.271h-89.734c-5.087 0-9.358 3.512-10.547 8.235h-157.572c-11.617 0-21.068 9.451-21.068 21.067s9.451 21.067 21.068 21.067h157.572c1.189 4.724 5.46 8.235 10.547 8.235h101.471c9.739 0 17.663-7.924 17.663-17.663v-23.279c0-8.623-6.216-15.811-14.4-17.348zm-115.622 35.056h-132.465v-12.135h132.465zm-163.299-6.068c0-3.346 2.722-6.067 6.068-6.067h9.767v12.135h-9.767c-3.346 0-6.068-2.722-6.068-6.068zm278.321 11.64c0 1.469-1.195 2.663-2.663 2.663h-97.359v-28.605h97.359c1.468 0 2.663 1.194 2.663 2.663z"/><path d="m374.715 376.771h62.751c4.142 0 7.5-3.357 7.5-7.5s-3.358-7.5-7.5-7.5h-62.751c-4.142 0-7.5 3.357-7.5 7.5s3.358 7.5 7.5 7.5z"/><path d="m398.159 302.573-20.111 12.625c-4.374 2.745-6.986 7.468-6.986 12.632 0 5.165 2.611 9.888 6.985 12.635l20.114 12.626c2.408 1.512 5.168 2.268 7.929 2.268 2.761-.001 5.522-.757 7.931-2.268l20.113-12.627c4.374-2.746 6.985-7.469 6.984-12.634 0-5.164-2.612-9.887-6.985-12.632l-20.112-12.625c-4.818-3.025-11.043-3.025-15.862 0zm27.885 25.259-19.909 12.554-19.998-12.555 19.953-12.526z"/><path d="m294.665 56.082c4.142 0 7.5-3.357 7.5-7.5s-3.358-7.5-7.5-7.5h-15.285c-6.893 0-12.5 5.607-12.5 12.5v26.495c0 6.893 5.607 12.5 12.5 12.5h110.62c6.893 0 12.5-5.607 12.5-12.5v-26.495c0-6.893-5.607-12.5-12.5-12.5h-65.335c-4.142 0-7.5 3.357-7.5 7.5s3.358 7.5 7.5 7.5h62.835v21.495h-105.62v-21.495z"/><path d="m261.1 147.532c0 4.143 3.358 7.5 7.5 7.5h132.18c4.142 0 7.5-3.357 7.5-7.5s-3.358-7.5-7.5-7.5h-132.18c-4.142 0-7.5 3.358-7.5 7.5z"/><path d="m268.6 194.738h132.18c4.142 0 7.5-3.357 7.5-7.5s-3.358-7.5-7.5-7.5h-132.18c-4.142 0-7.5 3.357-7.5 7.5s3.358 7.5 7.5 7.5z"/><path d="m268.6 234.445h132.18c4.142 0 7.5-3.357 7.5-7.5s-3.358-7.5-7.5-7.5h-132.18c-4.142 0-7.5 3.357-7.5 7.5s3.358 7.5 7.5 7.5z"/></g></svg>